<?xml version="1.0" encoding="UTF-8" standalone="no"?>
<svg
   xmlns:dc="http://purl.org/dc/elements/1.1/"
   xmlns:cc="http://creativecommons.org/ns#"
   xmlns:rdf="http://www.w3.org/1999/02/22-rdf-syntax-ns#"
   xmlns:svg="http://www.w3.org/2000/svg"
   xmlns="http://www.w3.org/2000/svg"
   viewBox="0 0 1442.9867 690.71198"
   height="690.71198"
   width="1442.9867"
   xml:space="preserve"
   id="svg2"
   version="1.1"><metadata
     id="metadata8"><rdf:RDF><cc:Work
         rdf:about=""><dc:format>image/svg+xml</dc:format><dc:type
           rdf:resource="http://purl.org/dc/dcmitype/StillImage" /><dc:title></dc:title></cc:Work></rdf:RDF></metadata><defs
     id="defs6"><clipPath
       id="clipPath18"
       clipPathUnits="userSpaceOnUse"><path
         id="path16"
         d="M 0,518.034 H 1082.24 V 0 H 0 Z" /></clipPath></defs><g
     transform="matrix(1.3333333,0,0,-1.3333333,0,690.712)"
     id="g10"><g
       id="g12"><g
         clip-path="url(#clipPath18)"
         id="g14"><g
           transform="translate(210.8314,264.1716)"
           id="g20"><path
             id="path22"
             style="fill:#000000;fill-opacity:1;fill-rule:nonzero;stroke:none"
             d="m 0,0 c 0,117.159 -15.292,129.346 -55.113,129.346 h -16.203 c -1.935,0 -3.504,-1.552 -3.504,-3.465 v -255.118 c 0,-1.914 1.569,-3.465 3.504,-3.465 h 15.598 C -14.14,-132.702 0,-118.917 0,0 m 122.522,5.64 c 0,-101.019 -11.974,-163.017 -38.822,-201.028 -26.175,-37.055 -65.989,-52.864 -133.125,-52.864 H -74.82 v -10e-4 h -115.006 c -4.838,0 -8.76,3.878 -8.76,8.662 V 229.59 c 0,4.784 3.922,8.662 8.76,8.662 h 111.065 v 10e-4 h 31.235 c 81.313,0 110.831,-22.897 128.985,-45.296 28.398,-35.039 41.063,-92.81 41.063,-187.317 M 742.909,-55.146 H 849.02 c 4.838,0 8.76,3.879 8.76,8.663 v 88.734 c 0,4.784 -3.922,8.662 -8.76,8.662 H 742.909 c -1.935,0 -3.504,1.551 -3.504,3.465 v 71.503 c 0,1.913 1.569,3.465 3.504,3.465 h 110.494 c 4.838,0 8.76,3.878 8.76,8.662 v 91.582 c 0,4.784 -3.922,8.662 -8.76,8.662 l -229.004,10e-4 c -4.838,0 -8.76,-3.878 -8.76,-8.663 v -469.18 c 0,-4.784 3.922,-8.662 8.761,-8.662 l 229.003,0.001 c 4.838,0 8.76,3.879 8.76,8.663 v 98.224 c 0,4.784 -3.922,8.662 -8.76,8.662 H 742.909 c -1.935,0 -3.504,1.551 -3.504,3.465 v 70.626 c 0,1.914 1.569,3.465 3.504,3.465 M 254.776,238.253 H 148.308 c -4.846,0 -8.649,-3.938 -8.649,-8.727 v -469.903 c 0,-4.331 3.584,-7.875 7.964,-7.875 h 107.838 c 4.38,0 7.964,3.544 7.964,7.875 v 469.903 c 0,4.789 -3.803,8.727 -8.649,8.727 M 600.342,-79.134 c -0.641,-58.457 -13.276,-101.221 -38.646,-130.53 -25.759,-29.756 -65.051,-44.848 -116.783,-44.848 -59.016,0 -98.634,18.019 -124.687,56.7 -27.062,40.179 -39.664,103.236 -39.664,198.445 0,175.502 46.435,243.877 165.617,243.877 54.877,0 93.229,-13.651 118.257,-40.812 C 606.367,158.194 599.039,70.93 598.88,66.668 597.958,51.893 593.558,35.587 576.647,35.587 h -86.278 c -11.895,0 -11.614,7.827 -11.597,10.509 0.176,5.03 0.525,15.891 0.525,22.757 0,60.379 -15.572,65.293 -34.384,65.293 -23.098,0 -39.448,-9.534 -39.448,-132.887 0,-137.892 21.63,-137.892 40.714,-137.892 16.009,0 34.384,7.777 34.384,68.423 0,6.271 -0.681,13.664 -1.054,17.243 -0.185,2.775 -0.431,10.387 11.371,10.397 h 86.923 c 19.864,0 22.464,-21.588 22.464,-38.604 z" /></g></g></g></g></svg>