<svg width="20" height="20" viewBox="0 0 20 20" fill="none" xmlns="http://www.w3.org/2000/svg">
<path d="M7.5 14.1666L10 11.7166C9.675 11.6833 9.43333 11.6666 9.16667 11.6666C6.94167 11.6666 2.5 12.7833 2.5 14.9999V16.6666H10L7.5 14.1666ZM9.16667 9.99992C11.0083 9.99992 12.5 8.50825 12.5 6.66659C12.5 4.82492 11.0083 3.33325 9.16667 3.33325C7.325 3.33325 5.83333 4.82492 5.83333 6.66659C5.83333 8.50825 7.325 9.99992 9.16667 9.99992Z" fill="#141414"/>
<path d="M12.8917 17.0834L10 14.1667L11.1667 12.9917L12.8917 14.7251L17.1667 10.4167L18.3333 11.5917L12.8917 17.0834Z" fill="#141414"/>
</svg>
