<svg width="143" height="32" viewBox="0 0 143 32" fill="none" xmlns="http://www.w3.org/2000/svg">
<g clip-path="url(#clip0_10_24333)">
<path d="M92.7077 11.6525C90.2988 9.5455 87.3911 8.51575 84.0281 8.51575C80.7125 8.51575 77.8047 9.54732 75.3941 11.6525C72.9852 13.7136 71.7617 16.5827 71.7617 20.258C71.7617 23.9331 72.9852 26.8005 75.3941 28.9073C77.8029 30.9686 80.7125 32 84.0281 32C87.3911 32 90.2988 30.9686 92.7077 28.9073C95.1621 26.8005 96.3874 23.9331 96.3874 20.2578C96.3874 16.5825 95.1602 13.7136 92.7077 11.6525ZM79.4871 24.9628C78.2162 23.7536 77.5772 22.1837 77.5772 20.258C77.5772 18.3306 78.2108 16.7623 79.4871 15.597C80.758 14.3878 82.2583 13.805 84.0263 13.805C85.7961 13.805 87.3419 14.3878 88.6146 15.597C89.9292 16.7623 90.5701 18.3306 90.5701 20.258C90.5701 22.1853 89.9346 23.7536 88.6146 24.9628C87.3437 26.128 85.7979 26.7107 84.0263 26.7107C82.2583 26.7107 80.7598 26.128 79.4871 24.9628ZM104.978 31.371V0.617754H99.2533V31.371H104.978ZM123.457 9.14201V21.4126C123.457 24.3696 121.836 26.3292 118.752 26.3292C115.616 26.3292 114.04 24.3712 114.04 21.4126V9.14201H108.304V22.3541C108.304 27.4724 111.574 31.9978 118.752 31.9978H118.796C125.929 31.9978 129.196 27.3725 129.196 22.3541V9.14201H123.457ZM65.6675 9.14201L59.9431 24.2003L54.2168 9.14201H48.13L57.2647 31.3712H62.6269L71.7598 9.14201H65.6675ZM48.1591 19.6295C48.1591 16.403 47.114 13.7593 45.0693 11.6525C43.0246 9.5455 40.3918 8.51575 37.1654 8.51575C33.8498 8.51575 31.0312 9.63704 28.7134 11.832C26.4393 14.0287 25.3068 16.8062 25.3068 20.258C25.3068 23.7096 26.4411 26.5329 28.6679 28.7278C30.942 30.9246 33.6677 32 36.8923 32C41.8484 32 45.346 29.8491 47.4763 25.5014L43.2066 23.0811C41.801 25.8148 39.7545 27.1594 36.9833 27.1594C33.5766 27.1594 31.1678 25.0087 30.8037 21.6026H48.1573V19.6295H48.1591ZM36.9797 12.8177C40.2061 12.8177 42.3436 14.6096 42.8862 17.4787H30.8018C31.6667 14.8349 34.0264 12.8177 36.9797 12.8177ZM25.3068 31.3714L17.625 18.1067C22.4846 16.359 24.8935 13.312 24.8935 8.87465C24.8989 3.45162 20.5327 0 13.5829 0H0V31.3714H5.9976V18.6436H11.0884L18.4461 31.3714H25.3068ZM13.5829 5.19772C17.1261 5.19772 18.8995 6.58638 18.8995 9.32C18.8995 12.0536 17.1243 13.4425 13.5829 13.4425H5.9976V5.19772H13.5829ZM138.9 31.998C135.215 31.998 132.227 29.0492 132.227 25.4096V3.13676H137.952V9.15071H142.861V13.7218H137.952V25.0473C137.952 26.1142 138.828 26.9779 139.911 26.9779H142.861V31.998H138.9Z" fill="black"/>
</g>
<defs>
<clipPath id="clip0_10_24333">
<rect width="142.861" height="32" fill="white"/>
</clipPath>
</defs>
</svg>
