<svg width="35" height="23" viewBox="0 0 35 23" fill="none" xmlns="http://www.w3.org/2000/svg">
<g clip-path="url(#clip0_6193_15483)">
<path d="M10.6015 17.9213L10.539 17.9819C9.55659 18.9829 8.41978 19.5117 7.24876 19.5117C4.80311 19.5117 3.02899 17.6769 3.02899 15.1463C3.02899 12.6195 4.80311 10.7818 7.24876 10.7818C8.41978 10.7818 9.55659 11.3136 10.539 12.3184L10.6015 12.378L12.1743 10.4759L12.1322 10.425C10.8244 8.87964 9.25455 8.12796 7.32501 8.12796C5.39058 8.12796 3.61939 8.77994 2.34476 9.95389C0.956739 11.2266 0.226562 13.0212 0.226562 15.1463C0.226562 17.2713 0.956739 19.0698 2.34476 20.3425C3.61939 21.5233 5.39058 22.1704 7.32501 22.1704C9.25455 22.1704 10.8244 21.4178 12.1322 19.8714L12.1743 19.8245L10.6015 17.9213Z" fill="#1B1B1B" fill-opacity="0.55"/>
<path d="M13.7656 21.9111H16.5436V8.34765H13.7656V21.9111Z" fill="#1B1B1B" fill-opacity="0.55"/>
<path d="M27.4278 18.9627C26.6859 19.4143 25.9968 19.642 25.3771 19.642C24.4788 19.642 24.0721 19.167 24.0721 18.1113V10.9141H26.9039V8.36097H24.0721V4.14022L21.3499 5.59862V8.36097H19V10.9141H21.3499V18.5698C21.3499 20.6547 22.5854 22.0818 24.4309 22.119C25.683 22.1434 26.4376 21.77 26.8951 21.4963L26.9244 21.4778L27.592 18.862L27.4278 18.9627Z" fill="#1B1B1B" fill-opacity="0.55"/>
<path d="M29.7266 21.9111H32.5085V8.34765H29.7266V21.9111Z" fill="#1B1B1B" fill-opacity="0.55"/>
<path d="M34.1233 5.96955C31.5848 2.37439 27.3699 0.229802 23.0818 0.229802C18.7945 0.229802 14.5787 2.37439 12.045 5.96955L11.9141 6.1543H15.1104L15.1456 6.11618C17.3205 3.86993 20.161 2.68327 23.0818 2.68327C26.0025 2.68327 28.8411 3.86993 31.0208 6.11618L31.056 6.1543H34.2504L34.1233 5.96955Z" fill="#1B1B1B" fill-opacity="0.55"/>
</g>
<defs>
<clipPath id="clip0_6193_15483">
<rect width="34.4866" height="22.4" fill="white"/>
</clipPath>
</defs>
</svg>
