<svg width="20" height="20" viewBox="0 0 20 20" fill="none" xmlns="http://www.w3.org/2000/svg">
<path d="M9.99707 1.07275C14.9271 1.07275 18.9246 5.06956 18.9248 9.99951C18.9248 14.9297 14.9272 18.9272 9.99707 18.9272C5.06711 18.927 1.07031 14.9295 1.07031 9.99951C1.07055 5.0697 5.06726 1.07299 9.99707 1.07275ZM9.99707 3.30518C8.06842 3.3053 6.33198 4.12215 5.11035 5.42725H8.03711V8.03076H3.59766C3.40633 8.65331 3.30278 9.31424 3.30273 9.99951H7.16699V11.7417H8.47266V14.3452H4.90625C6.13415 15.7825 7.9585 16.6947 9.99707 16.6948C11.1418 16.6948 12.2197 16.4073 13.1621 15.9009H11.7529V13.2974H15.8232C16.3755 12.3238 16.6924 11.1988 16.6924 9.99951C16.6923 9.31425 16.5888 8.6533 16.3975 8.03076H14.7881V9.3374H13.915V11.8599H10.3818V9.3374H9.58008V6.73389H11.7568V5.42725H14.8848C13.663 4.12202 11.9259 3.30518 9.99707 3.30518Z" fill="#141414"/>
</svg>
